<svg width="20" height="15" viewBox="0 0 20 15" fill="none" xmlns="http://www.w3.org/2000/svg">
<path d="M12.5 8.25C16.1457 8.25 18.0619 9.62905 19.041 11.0977C19.5208 11.8174 19.7597 12.5349 19.8789 13.0713C19.9386 13.3399 19.969 13.5654 19.9844 13.7266C19.9921 13.8073 19.996 13.8726 19.998 13.9189C19.9991 13.9421 19.9997 13.961 20 13.9746V13.999C20 13.9994 20 14 19.5 14H20C20 14.2761 19.7761 14.5 19.5 14.5C19.2583 14.5 19.0563 14.3286 19.0098 14.1006L19 14C19 13.9991 19 13.9978 19 13.9961C18.9999 13.9899 18.9997 13.9782 18.999 13.9629C18.9977 13.9323 18.9942 13.8847 18.9883 13.8223C18.9763 13.6964 18.952 13.5114 18.9023 13.2881C18.8028 12.8401 18.6041 12.2451 18.209 11.6523C17.4381 10.4959 15.8543 9.25 12.5 9.25C9.14565 9.25 7.56195 10.4959 6.79102 11.6523C6.39585 12.2451 6.19721 12.8401 6.09766 13.2881C6.04803 13.5114 6.02371 13.6964 6.01172 13.8223C6.00578 13.8847 6.00234 13.9323 6.00098 13.9629C6.0003 13.9782 6.00013 13.9899 6 13.9961C5.99994 13.999 6.00001 14.0013 6 14.002C5.99895 14.2772 5.77549 14.5 5.5 14.5C5.22386 14.5 5 14.2761 5 14H5.5C5 14 5 13.9994 5 13.999V13.9746C5.00029 13.961 5.00093 13.9421 5.00195 13.9189C5.00401 13.8726 5.00794 13.8073 5.01562 13.7266C5.03099 13.5654 5.06142 13.3399 5.12109 13.0713C5.2403 12.5349 5.47918 11.8174 5.95898 11.0977C6.93805 9.62905 8.85435 8.25 12.5 8.25ZM12.5 0C14.433 0 16 1.567 16 3.5C16 5.433 14.433 7 12.5 7C10.567 7 9 5.433 9 3.5C9 1.567 10.567 0 12.5 0ZM12.5 1C11.1193 1 10 2.11929 10 3.5C10 4.88071 11.1193 6 12.5 6C13.8807 6 15 4.88071 15 3.5C15 2.11929 13.8807 1 12.5 1Z" fill="#121212"/>
<g clip-path="url(#clip0_3_176)">
<path d="M6.86375 6.58749L2.28794 6.56413M4.58752 4.2879L4.56417 8.86372" stroke="#121212" stroke-linecap="round" stroke-linejoin="round"/>
</g>
<defs>
<clipPath id="clip0_3_176">
<rect width="6.47126" height="6.47126" fill="white" transform="translate(4.59918 2) rotate(45.2925)"/>
</clipPath>
</defs>
</svg>
